# xmcd CD database file
#
# Track frame offsets:
#	150
#	13410
#	29392
#	43235
#	60565
#	77830
#	84610
#	99602
#	113347
#	116867
#	146935
#	164780
#	182392
#
# Disc length: 2702 seconds
#
# Revision: 0
# Processed by: cddbd v1.5.2PL0 Copyright (c) Steve Scherf et al.
# Submitted via: CDex 1.51
#
DISCID=b50a8c0d
DTITLE=Andi Almqvist - Glimmer
DYEAR=2009
DGENRE=Blues
TTITLE0=Sleeping Pills
TTITLE1=She Lost The Sea But Found The Ocean
TTITLE2=Hyena
TTITLE3=Amsterdam
TTITLE4=Death
TTITLE5=My Birthday, The Moon Festival
TTITLE6=Krautobahn
TTITLE7=Merlin Hotel
TTITLE8=Ich Geh' Mit Meiner Laterne
TTITLE9=Krumlov
TTITLE10=Pavla
TTITLE11=Sobsister
TTITLE12=Petra Moved On
EXTD=YEAR: 2009
EXTT0=
EXTT1=
EXTT2=
EXTT3=
EXTT4=
EXTT5=
EXTT6=
EXTT7=
EXTT8=
EXTT9=
EXTT10=
EXTT11=
EXTT12=
PLAYORDER=
